<?xml version="1.0" encoding="utf-8"?><!-- Uploaded to: SVG Repo, www.svgrepo.com, Generator: SVG Repo Mixer Tools -->
<svg fill="#000000" width="800px" height="800px" viewBox="0 0 24 24" id="folder-add" data-name="Flat Color" xmlns="http://www.w3.org/2000/svg" class="icon flat-color"><path id="secondary" d="M16,22a1,1,0,0,1-1-1V18H12a1,1,0,0,1,0-2h3V13a1,1,0,0,1,2,0v3h3a1,1,0,0,1,0,2H17v3A1,1,0,0,1,16,22Z" style="fill: rgb(44, 169, 188);"></path><path id="primary" d="M9,16a7,7,0,0,1,13-3.59V7a2,2,0,0,0-2-2H12.83L10.41,2.59A2,2,0,0,0,9,2H4A2,2,0,0,0,2,4V17a2,2,0,0,0,2,2H9.68A7,7,0,0,1,9,16Z" style="fill: rgb(0, 0, 0);"></path></svg>