<?xml version="1.0" encoding="utf-8"?><!-- Uploaded to: SVG Repo, www.svgrepo.com, Generator: SVG Repo Mixer Tools -->
<svg fill="#000000" width="800px" height="800px" viewBox="0 0 24 24" id="add-file-3" data-name="Flat Color" xmlns="http://www.w3.org/2000/svg" class="icon flat-color"><path id="primary" d="M14,19a5,5,0,0,1,4-4.9h0V5a1,1,0,0,0-.29-.71l-2-2A1,1,0,0,0,15,2H4A2,2,0,0,0,2,4V20a2,2,0,0,0,2,2H15A5,5,0,0,1,14,19Z" style="fill: rgb(255, 255, 255);"></path><path id="secondary" d="M19,22a1,1,0,0,1-1-1V20H17a1,1,0,0,1,0-2h1V17a1,1,0,0,1,2,0v1h1a1,1,0,0,1,0,2H20v1A1,1,0,0,1,19,22ZM15,4a1,1,0,0,0,1,1h2a1,1,0,0,0-.28-.71l-2-2A1,1,0,0,0,15,2Z" style="fill: rgb(44, 169, 188);"></path></svg>