<?xml version="1.0" encoding="utf-8"?><!-- Uploaded to: SVG Repo, www.svgrepo.com, Generator: SVG Repo Mixer Tools -->
<svg fill="#000000" width="800px" height="800px" viewBox="0 0 24 24" id="copy" data-name="Flat Color" xmlns="http://www.w3.org/2000/svg" class="icon flat-color"><path id="secondary" d="M16,22H6a2,2,0,0,1-2-2V6A1,1,0,0,1,6,6V20H16a1,1,0,0,1,0,2Z" style="fill: rgb(44, 169, 188);"></path><path id="primary" d="M19.71,5.29l-3-3A1.05,1.05,0,0,0,16,2H9A1,1,0,0,0,8,3V17a1,1,0,0,0,1,1H19a1,1,0,0,0,1-1V6A1,1,0,0,0,19.71,5.29Z" style="fill: rgb(255, 255, 255);"></path></svg>