<?xml version="1.0" encoding="utf-8"?><!-- Uploaded to: SVG Repo, www.svgrepo.com, Generator: SVG Repo Mixer Tools -->
<svg fill="#000000" width="800px" height="800px" viewBox="0 0 24 24" id="curve-arrow-down-5" data-name="Flat Color" xmlns="http://www.w3.org/2000/svg" class="icon flat-color"><path id="secondary" d="M9,22H5a2,2,0,0,1-2-2V4A2,2,0,0,1,5,2H19a2,2,0,0,1,2,2V9a1,1,0,0,1-2,0V4H5V20H9a1,1,0,0,1,0,2Z" style="fill: rgb(44, 169, 188);"></path><path id="primary" d="M20.88,13.53A1,1,0,0,0,20,13H17.9C17.3,8.56,13.67,5.94,8,5.94a1,1,0,0,0-.5,1.87A8.87,8.87,0,0,1,11.35,13H9.5a1,1,0,0,0-.88.53,1,1,0,0,0,.05,1L13.2,21.2a2,2,0,0,0,3.1,0l.05-.06,4.48-6.58A1,1,0,0,0,20.88,13.53Z" style="fill: rgb(255, 255, 255);"></path></svg>