<?xml version="1.0" encoding="utf-8"?><!-- Uploaded to: SVG Repo, www.svgrepo.com, Generator: SVG Repo Mixer Tools -->
<svg fill="#000000" width="800px" height="800px" viewBox="0 0 24 24" id="diskette-save" data-name="Flat Color" xmlns="http://www.w3.org/2000/svg" class="icon flat-color"><path id="primary" d="M3.29,6.29l4-4A1,1,0,0,1,8,2H19a2,2,0,0,1,2,2V20a2,2,0,0,1-2,2H5a2,2,0,0,1-2-2V7A1,1,0,0,1,3.29,6.29Z" style="fill: rgb(255, 255, 255);"></path><path id="secondary" d="M15,6H9A1,1,0,0,1,8,5V2h8V5A1,1,0,0,1,15,6ZM7,15v7H17V15a1,1,0,0,0-1-1H8A1,1,0,0,0,7,15Z" style="fill: rgb(44, 169, 188);"></path></svg>