<?xml version="1.0" encoding="utf-8"?><!-- Uploaded to: SVG Repo, www.svgrepo.com, Generator: SVG Repo Mixer Tools -->
<svg fill="#000000" width="800px" height="800px" viewBox="0 0 24 24" id="file-search" data-name="Flat Color" xmlns="http://www.w3.org/2000/svg" class="icon flat-color"><path id="secondary" d="M21.65,20.24l-3.3-2.83A4.9,4.9,0,0,0,19,15a5.06,5.06,0,1,0-1.95,3.93l3.3,2.83a1,1,0,1,0,1.3-1.52ZM11,15a3,3,0,1,1,3,3A3,3,0,0,1,11,15Z" style="fill: rgb(44, 169, 188);"></path><path id="primary" d="M7.5,15.25A6.75,6.75,0,0,1,18,9.64V7.41A2,2,0,0,0,17.41,6L14,2.59A2,2,0,0,0,12.59,2H4A2,2,0,0,0,2,4V19a2,2,0,0,0,2,2h6.74A6.76,6.76,0,0,1,7.5,15.25Z" style="fill: rgb(255, 255, 255);"></path></svg>