<?xml version="1.0" encoding="utf-8"?><!-- Uploaded to: SVG Repo, www.svgrepo.com, Generator: SVG Repo Mixer Tools -->
<svg fill="#000000" width="800px" height="800px" viewBox="0 0 24 24" id="file-edit" data-name="Flat Color" xmlns="http://www.w3.org/2000/svg" class="icon flat-color"><path id="secondary" d="M20.31,12.3l1.4,1.4a1,1,0,0,1,0,1.4L15.1,21.71a1,1,0,0,1-.71.3H13a1,1,0,0,1-1-1V19.62a1,1,0,0,1,.3-.71l6.61-6.61A1,1,0,0,1,20.31,12.3Z" style="fill: rgb(44, 169, 188);"></path><path id="primary" d="M9,17.5A7.5,7.5,0,0,1,16.5,10a7.41,7.41,0,0,1,1.5.15V7.41A2,2,0,0,0,17.41,6L14,2.59A2,2,0,0,0,12.59,2H4A2,2,0,0,0,2,4V19a2,2,0,0,0,2,2H9.87A7.53,7.53,0,0,1,9,17.5Z" style="fill: rgb(255, 255, 255);"></path></svg>